<svg xmlns="http://www.w3.org/2000/svg" version="1.1" xmlns:xlink="http://www.w3.org/1999/xlink" width="200" height="200"><svg xmlns="http://www.w3.org/2000/svg" version="1.1" xmlns:xlink="http://www.w3.org/1999/xlink" viewBox="0 0 200 200"><rect width="200" height="200" fill="url('#gradient')"></rect><defs><linearGradient id="SvgjsLinearGradient1001" gradientTransform="rotate(90 0.5 0.5)"><stop offset="0%" stop-color="#21c8ee"></stop><stop offset="100%" stop-color="#e6e498"></stop></linearGradient></defs><g><g fill="#236170" transform="matrix(2.263655811742334,0,0,2.263655811742334,5.980849048133294,111.26227287784846)" stroke="#cde5d3" stroke-width="0.15"><path d="M9.08-7.79L3.74-5.95L9.08-4.15L9.08-1.15L0.45-4.67L0.45-7.27L9.08-10.78L9.08-7.79ZM20.18 0L19.35-2.66L14.65-2.66L13.83 0L10.17 0L15.38-14.22L18.60-14.22L23.86 0L20.18 0ZM16.99-10.23L15.47-5.30L18.53-5.30L16.99-10.23ZM24.21-10.57L27.29-10.57L27.40-9.33Q28.50-10.76 30.42-10.76L30.42-10.76Q32.07-10.76 32.89-9.78Q33.70-8.79 33.73-6.81L33.73-6.81L33.73 0L30.43 0L30.43-6.67Q30.43-7.47 30.11-7.85Q29.79-8.22 28.94-8.22L28.94-8.22Q27.97-8.22 27.50-7.46L27.50-7.46L27.50 0L24.21 0L24.21-10.57ZM44.79 0L41.50 0Q41.33-0.32 41.19-0.95L41.19-0.95Q40.28 0.20 38.65 0.20L38.65 0.20Q37.16 0.20 36.11-0.71Q35.07-1.61 35.07-2.98L35.07-2.98Q35.07-4.70 36.34-5.58Q37.61-6.46 40.03-6.46L40.03-6.46L41.04-6.46L41.04-7.01Q41.04-8.47 39.79-8.47L39.79-8.47Q38.61-8.47 38.61-7.31L38.61-7.31L35.32-7.31Q35.32-8.85 36.63-9.80Q37.93-10.76 39.95-10.76Q41.97-10.76 43.14-9.78Q44.32-8.79 44.35-7.07L44.35-7.07L44.35-2.39Q44.37-0.94 44.79-0.17L44.79-0.17L44.79 0ZM39.44-2.15L39.44-2.15Q40.06-2.15 40.46-2.41Q40.87-2.68 41.04-3.01L41.04-3.01L41.04-4.70L40.09-4.70Q38.37-4.70 38.37-3.15L38.37-3.15Q38.37-2.71 38.67-2.43Q38.97-2.15 39.44-2.15ZM48.57-10.57L50.24-4.61L52.00-10.57L55.53-10.57L51.22 1.77L51.04 2.22Q50.12 4.27 47.79 4.27L47.79 4.27Q47.15 4.27 46.44 4.07L46.44 4.07L46.44 1.72L46.87 1.72Q47.56 1.72 47.92 1.52Q48.29 1.32 48.47 0.80L48.47 0.80L48.73 0.10L45.06-10.57L48.57-10.57ZM65.48 0L62.19 0Q62.01-0.32 61.88-0.95L61.88-0.95Q60.97 0.20 59.34 0.20L59.34 0.20Q57.84 0.20 56.80-0.71Q55.75-1.61 55.75-2.98L55.75-2.98Q55.75-4.70 57.02-5.58Q58.29-6.46 60.71-6.46L60.71-6.46L61.73-6.46L61.73-7.01Q61.73-8.47 60.47-8.47L60.47-8.47Q59.30-8.47 59.30-7.31L59.30-7.31L56.01-7.31Q56.01-8.85 57.31-9.80Q58.61-10.76 60.63-10.76Q62.66-10.76 63.83-9.78Q65-8.79 65.03-7.07L65.03-7.07L65.03-2.39Q65.05-0.94 65.48-0.17L65.48-0.17L65.48 0ZM60.13-2.15L60.13-2.15Q60.74-2.15 61.15-2.41Q61.55-2.68 61.73-3.01L61.73-3.01L61.73-4.70L60.77-4.70Q59.05-4.70 59.05-3.15L59.05-3.15Q59.05-2.71 59.36-2.43Q59.66-2.15 60.13-2.15ZM72.84-14.22L67.98 1.22L65.64 1.22L70.50-14.22L72.84-14.22ZM74.03-4.13L79.35-5.98L74.03-7.78L74.03-10.77L82.62-7.26L82.62-4.66L74.03-1.14L74.03-4.13Z"></path></g></g></svg><style>@media (prefers-color-scheme: light) { :root { filter: none; } }
@media (prefers-color-scheme: dark) { :root { filter: none; } }
</style></svg>