<svg xmlns="http://www.w3.org/2000/svg" version="1.1" xmlns:xlink="http://www.w3.org/1999/xlink" viewBox="0 0 200 200"><rect width="200" height="200" fill="url('#gradient')"></rect><defs><linearGradient id="gradient" gradientTransform="rotate(75 0.5 0.5)"><stop offset="0%" stop-color="#47b8ca"></stop><stop offset="100%" stop-color="#cfe5db"></stop></linearGradient></defs><g><g fill="#063b54" transform="matrix(3.3653459923315685,0,0,3.3653459923315685,8.482035410209406,122.21284469592652)" stroke="#367795" stroke-width="0.4"><path d="M9.08-7.79L3.74-5.95L9.08-4.15L9.08-1.15L0.45-4.67L0.45-7.27L9.08-10.78L9.08-7.79ZM20.18 0L19.35-2.66L14.65-2.66L13.83 0L10.17 0L15.38-14.22L18.60-14.22L23.86 0L20.18 0ZM16.99-10.23L15.47-5.30L18.53-5.30L16.99-10.23ZM36.33-7.60L36.33-1.76Q35.54-0.88 34.01-0.34Q32.49 0.20 30.67 0.20L30.67 0.20Q27.88 0.20 26.21-1.51Q24.54-3.22 24.42-6.27L24.42-6.27L24.41-7.50Q24.41-9.60 25.16-11.17Q25.90-12.73 27.28-13.58Q28.66-14.42 30.48-14.42L30.48-14.42Q33.13-14.42 34.60-13.21Q36.07-11.99 36.32-9.58L36.32-9.58L33.02-9.58Q32.84-10.77 32.26-11.28Q31.67-11.79 30.60-11.79L30.60-11.79Q29.31-11.79 28.60-10.69Q27.90-9.60 27.89-7.57L27.89-7.57L27.89-6.71Q27.89-4.58 28.62-3.51Q29.35-2.44 30.91-2.44L30.91-2.44Q32.25-2.44 32.90-3.04L32.90-3.04L32.90-5.24L30.52-5.24L30.52-7.60L36.33-7.60ZM44.16-14.22L39.30 1.22L36.96 1.22L41.82-14.22L44.16-14.22ZM45.35-4.13L50.66-5.98L45.35-7.78L45.35-10.77L53.94-7.26L53.94-4.66L45.35-1.14L45.35-4.13Z"></path></g></g></svg>